<svg width="94" height="7" viewBox="0 0 94 7" fill="none" xmlns="http://www.w3.org/2000/svg">
<g filter="url(#filter0_d_70_3)">
<path d="M7.27024 5H6.56853V2.1791L4.65224 4.38284H4.05198L2.13569 2.1791V5H1.43398V0.958868H2.08496L4.35352 3.63041L6.61926 0.958868H7.27024V5ZM13.9632 5H13.1206L12.6049 4.23066H9.19217L8.67928 5H7.83385L10.5279 0.958868H11.2691L13.9632 5ZM12.1399 3.52896L10.8999 1.66903L9.65997 3.52896H12.1399ZM18.5567 5H15.4765C14.8565 5 14.3549 4.49838 14.3549 3.8784V2.08047C14.3549 1.46331 14.8565 0.958868 15.4765 0.958868H18.5567C19.1766 0.958868 19.6783 1.46331 19.6783 2.08047V2.17628H18.9766V2.08047C18.9766 1.84656 18.7934 1.66057 18.5567 1.66057H15.4765C15.2398 1.66057 15.0566 1.84656 15.0566 2.08047V3.8784C15.0566 4.11512 15.2398 4.2983 15.4765 4.2983H18.5567C18.7934 4.2983 18.9766 4.11512 18.9766 3.8784V3.33169H16.9222V2.62999H19.6783V3.8784C19.6783 4.49838 19.1766 5 18.5567 5ZM21.1747 5H20.473V0.958868H21.1747V5ZM25.9513 5H22.9641C22.3921 5 21.9243 4.54347 21.9243 3.98267V3.88686H22.626V3.98267C22.626 4.16303 22.7725 4.2983 22.9641 4.2983H25.9513C26.1429 4.2983 26.2895 4.16303 26.2895 3.98267V3.64732C26.2895 3.46696 26.1429 3.33169 25.9513 3.33169H22.9641C22.3921 3.33169 21.9243 2.87516 21.9243 2.31155V1.97901C21.9243 1.41822 22.3921 0.958868 22.9641 0.958868H25.9513C26.5234 0.958868 26.9912 1.41822 26.9912 1.97901V2.07201H26.2895V1.97901C26.2895 1.79866 26.1429 1.66057 25.9513 1.66057H22.9641C22.7725 1.66057 22.626 1.79866 22.626 1.97901V2.31155C22.626 2.49191 22.7725 2.62999 22.9641 2.62999H25.9513C26.5234 2.62999 26.9912 3.08652 26.9912 3.64732V3.98267C26.9912 4.54347 26.5234 5 25.9513 5ZM35.3327 5H34.5718L33.2276 1.94238L31.8834 5H31.1225L29.0766 0.958868H29.8628L31.4945 4.17994C32.416 2.03256 31.9538 3.10625 32.8782 0.958868H33.577C34.4986 3.10625 34.0392 2.03256 34.9607 4.17994L36.5924 0.958868H37.3786L35.3327 5ZM42.8232 5H37.8831V0.958868H42.8232V1.66057H38.5848V2.62999H42.3075V3.33169H38.5848V4.2983H42.8232V5ZM48.0535 5H43.5953V0.958868H47.7971C48.4171 0.958868 48.9187 1.46331 48.9187 2.08047C48.9187 2.39609 48.8961 2.59054 48.7186 2.84698C49.0032 3.05834 49.1751 3.39651 49.1751 3.75159V3.8784C49.1751 4.49838 48.6735 5 48.0535 5ZM47.7971 2.62999C48.0338 2.62999 48.217 2.444 48.217 2.2101V2.08047C48.217 1.84656 48.0338 1.66057 47.7971 1.66057H44.297V2.62999H47.7971ZM48.0535 4.2983C48.2903 4.2983 48.4734 4.11512 48.4734 3.8784V3.75159C48.4734 3.51487 48.2903 3.33169 48.0535 3.33169H44.297V4.2983H48.0535ZM55.4623 5H52.4751C51.903 5 51.4352 4.54347 51.4352 3.98267V3.88686H52.1369V3.98267C52.1369 4.16303 52.2835 4.2983 52.4751 4.2983H55.4623C55.6539 4.2983 55.8005 4.16303 55.8005 3.98267V3.64732C55.8005 3.46696 55.6539 3.33169 55.4623 3.33169H52.4751C51.903 3.33169 51.4352 2.87516 51.4352 2.31155V1.97901C51.4352 1.41822 51.903 0.958868 52.4751 0.958868H55.4623C56.0344 0.958868 56.5022 1.41822 56.5022 1.97901V2.07201H55.8005V1.97901C55.8005 1.79866 55.6539 1.66057 55.4623 1.66057H52.4751C52.2835 1.66057 52.1369 1.79866 52.1369 1.97901V2.31155C52.1369 2.49191 52.2835 2.62999 52.4751 2.62999H55.4623C56.0344 2.62999 56.5022 3.08652 56.5022 3.64732V3.98267C56.5022 4.54347 56.0344 5 55.4623 5ZM62.1947 5H57.2546V0.958868H62.1947V1.66057H57.9563V2.62999H61.679V3.33169H57.9563V4.2983H62.1947V5ZM68.2282 5H67.4701L66.7882 3.71495H63.6714V5H62.9697V0.958868H67.0446C67.6618 0.958868 68.1634 1.46331 68.1634 2.08047V2.59617C68.1634 3.04143 67.8985 3.4416 67.4955 3.61914L68.2282 5ZM67.0446 3.01325C67.2785 3.01325 67.4645 2.83008 67.4645 2.59617V2.08047C67.4645 1.84656 67.2785 1.66057 67.0446 1.66057H63.6714V3.01325H67.0446ZM71.996 5H71.2548L68.5607 0.958868H69.4033L71.624 4.29266L73.8446 0.958868H74.6901L71.996 5ZM75.8793 5H75.1776V0.958868H75.8793V5ZM80.9208 5H77.8407C77.2207 5 76.7191 4.49838 76.7191 3.8784V2.08047C76.7191 1.46331 77.2207 0.958868 77.8407 0.958868H80.9208C81.5408 0.958868 82.0424 1.46331 82.0424 2.08047V2.17628H81.3407V2.08047C81.3407 1.84656 81.1576 1.66057 80.9208 1.66057H77.8407C77.604 1.66057 77.4208 1.84656 77.4208 2.08047V3.8784C77.4208 4.11512 77.604 4.2983 77.8407 4.2983H80.9208C81.1576 4.2983 81.3407 4.11512 81.3407 3.8784V3.78541H82.0424V3.8784C82.0424 4.49838 81.5408 5 80.9208 5ZM87.6983 5H82.7582V0.958868H87.6983V1.66057H83.4599V2.62999H87.1826V3.33169H83.4599V4.2983H87.6983V5ZM92.3792 5H89.392C88.8199 5 88.3521 4.54347 88.3521 3.98267V3.88686H89.0538V3.98267C89.0538 4.16303 89.2004 4.2983 89.392 4.2983H92.3792C92.5708 4.2983 92.7173 4.16303 92.7173 3.98267V3.64732C92.7173 3.46696 92.5708 3.33169 92.3792 3.33169H89.392C88.8199 3.33169 88.3521 2.87516 88.3521 2.31155V1.97901C88.3521 1.41822 88.8199 0.958868 89.392 0.958868H92.3792C92.9512 0.958868 93.4191 1.41822 93.4191 1.97901V2.07201H92.7173V1.97901C92.7173 1.79866 92.5708 1.66057 92.3792 1.66057H89.392C89.2004 1.66057 89.0538 1.79866 89.0538 1.97901V2.31155C89.0538 2.49191 89.2004 2.62999 89.392 2.62999H92.3792C92.9512 2.62999 93.4191 3.08652 93.4191 3.64732V3.98267C93.4191 4.54347 92.9512 5 92.3792 5Z" fill="white"/>
</g>
<defs>
<filter id="filter0_d_70_3" x="0.916985" y="0.958984" width="93.0191" height="5.07521" filterUnits="userSpaceOnUse" color-interpolation-filters="sRGB">
<feFlood flood-opacity="0" result="BackgroundImageFix"/>
<feColorMatrix in="SourceAlpha" type="matrix" values="0 0 0 0 0 0 0 0 0 0 0 0 0 0 0 0 0 0 127 0" result="hardAlpha"/>
<feOffset dy="0.517097"/>
<feGaussianBlur stdDeviation="0.258549"/>
<feComposite in2="hardAlpha" operator="out"/>
<feColorMatrix type="matrix" values="0 0 0 0 0 0 0 0 0 0 0 0 0 0 0 0 0 0 0.67 0"/>
<feBlend mode="normal" in2="BackgroundImageFix" result="effect1_dropShadow_70_3"/>
<feBlend mode="normal" in="SourceGraphic" in2="effect1_dropShadow_70_3" result="shape"/>
</filter>
</defs>
</svg>
